<?xml version="1.0" encoding="utf-8"?>
<!-- Generator: Adobe Illustrator 15.0.0, SVG Export Plug-In . SVG Version: 6.00 Build 0)  -->
<!DOCTYPE svg PUBLIC "-//W3C//DTD SVG 1.1//EN" "http://www.w3.org/Graphics/SVG/1.1/DTD/svg11.dtd">
<svg version="1.1" id="Слой_1" xmlns="http://www.w3.org/2000/svg" xmlns:xlink="http://www.w3.org/1999/xlink" x="0px" y="0px"
	 width="346.975px" height="143.011px" viewBox="0 0 346.975 143.011" enable-background="new 0 0 346.975 143.011"
	 xml:space="preserve">
<g>
	<defs>
		<rect id="SVGID_1_" width="346.975" height="143.011"/>
	</defs>
	<clipPath id="SVGID_2_">
		<use xlink:href="#SVGID_1_"  overflow="visible"/>
	</clipPath>
	<path clip-path="url(#SVGID_2_)" fill="#231F20" d="M194.124,99.124l2.403-3.009c0.113-0.154,0.01-0.38-0.186-0.38h-1.294
		c-0.061,0-0.153,0.051-0.194,0.103l-2.28,2.844v-2.699c0-0.135-0.113-0.247-0.246-0.247h-1.202c-0.144,0-0.246,0.112-0.246,0.247
		v6.694c0,0.134,0.103,0.247,0.246,0.247h1.202c0.133,0,0.246-0.113,0.246-0.247v-3.06l2.373,3.225
		c0.02,0.03,0.112,0.071,0.184,0.071h1.418c0.195,0,0.309-0.225,0.195-0.379L194.124,99.124z"/>
	<path clip-path="url(#SVGID_2_)" fill="#231F20" d="M202.454,95.631h-0.103c-0.072,0-0.145,0.053-0.175,0.113l-3.215,6.912
		c-0.061,0.133,0.021,0.267,0.175,0.267h1.129c0.206,0,0.319-0.124,0.37-0.247l0.37-0.82h2.793l0.37,0.811
		c0.092,0.195,0.174,0.257,0.359,0.257h1.14c0.154,0,0.236-0.134,0.175-0.267l-3.215-6.912
		C202.598,95.684,202.526,95.631,202.454,95.631 M201.622,100.458l0.771-1.694h0.01l0.78,1.694H201.622z"/>
	<path clip-path="url(#SVGID_2_)" fill="#231F20" d="M222.571,95.735h-4.252c-0.113,0-0.195,0.092-0.195,0.195v6.798
		c0,0.103,0.082,0.195,0.195,0.195h4.252c0.113,0,0.195-0.093,0.195-0.195v-1.119c0-0.104-0.082-0.195-0.195-0.195h-2.845v-1.386
		h2.342c0.104,0,0.195-0.083,0.195-0.196v-1.119c0-0.103-0.092-0.194-0.195-0.194h-2.342v-1.273h2.845
		c0.113,0,0.195-0.093,0.195-0.196V95.93C222.767,95.827,222.685,95.735,222.571,95.735"/>
	<path clip-path="url(#SVGID_2_)" fill="#231F20" d="M234.974,98.518h-7.08c-0.113,0-0.195,0.082-0.195,0.194v1.119
		c0,0.104,0.082,0.186,0.195,0.186h7.08c0.113,0,0.195-0.082,0.195-0.186v-1.119C235.169,98.6,235.087,98.518,234.974,98.518"/>
	<path clip-path="url(#SVGID_2_)" fill="#231F20" d="M252.89,95.735h-4.252c-0.112,0-0.194,0.092-0.194,0.195v6.798
		c0,0.103,0.082,0.195,0.194,0.195h4.252c0.113,0,0.195-0.093,0.195-0.195v-1.119c0-0.104-0.082-0.195-0.195-0.195h-2.845v-1.386
		h2.342c0.103,0,0.195-0.083,0.195-0.196v-1.119c0-0.103-0.093-0.194-0.195-0.194h-2.342v-1.273h2.845
		c0.113,0,0.195-0.093,0.195-0.196V95.93C253.085,95.827,253.003,95.735,252.89,95.735"/>
	<path clip-path="url(#SVGID_2_)" fill="#231F20" d="M259.75,97.183c0.503,0,1.006,0.185,1.386,0.523
		c0.072,0.072,0.186,0.072,0.257,0l0.802-0.832c0.082-0.082,0.082-0.205-0.011-0.288c-0.697-0.636-1.458-0.955-2.484-0.955
		c-2.055,0-3.708,1.654-3.708,3.708s1.653,3.687,3.708,3.687c0.914,0,1.797-0.318,2.495-0.996c0.071-0.072,0.082-0.205,0.01-0.277
		l-0.801-0.852c-0.062-0.072-0.195-0.072-0.268-0.012c-0.369,0.319-0.893,0.493-1.376,0.493c-1.16,0-2.022-0.944-2.022-2.084
		C257.737,98.148,258.589,97.183,259.75,97.183"/>
	<path clip-path="url(#SVGID_2_)" fill="#231F20" d="M269.495,95.735h-4.56c-0.113,0-0.195,0.092-0.195,0.195v1.118
		c0,0.104,0.082,0.196,0.195,0.196h1.469v5.483c0,0.103,0.092,0.195,0.195,0.195h1.231c0.104,0,0.195-0.093,0.195-0.195v-5.483
		h1.469c0.113,0,0.195-0.093,0.195-0.196V95.93C269.69,95.827,269.608,95.735,269.495,95.735"/>
	<path clip-path="url(#SVGID_2_)" fill="#231F20" d="M285.005,95.735h-2.475c-0.112,0-0.195,0.093-0.195,0.194v6.799
		c0,0.103,0.083,0.195,0.195,0.195h1.212c0.103,0,0.194-0.093,0.194-0.195v-2.414h1.079c1.253,0,2.29-1.036,2.29-2.31
		C287.306,96.761,286.269,95.735,285.005,95.735 M284.913,98.816h-0.977v-1.571h0.977c0.441,0,0.811,0.328,0.811,0.76
		C285.724,98.466,285.354,98.816,284.913,98.816"/>
	<path clip-path="url(#SVGID_2_)" fill="#231F20" d="M292.595,95.631h-0.104c-0.071,0-0.144,0.053-0.174,0.113l-3.215,6.912
		c-0.062,0.133,0.021,0.267,0.175,0.267h1.129c0.206,0,0.319-0.124,0.37-0.247l0.37-0.82h2.793l0.37,0.811
		c0.092,0.195,0.174,0.257,0.359,0.257h1.14c0.154,0,0.236-0.134,0.175-0.267l-3.215-6.912
		C292.738,95.684,292.666,95.631,292.595,95.631 M291.763,100.458l0.77-1.694h0.011l0.78,1.694H291.763z"/>
	<path clip-path="url(#SVGID_2_)" fill="#231F20" d="M304.507,95.735h-1.223c-0.112,0-0.194,0.092-0.194,0.195v2.588h-2.938V95.93
		c0-0.104-0.082-0.195-0.195-0.195h-1.222c-0.103,0-0.196,0.092-0.196,0.195v6.798c0,0.103,0.094,0.195,0.196,0.195h1.222
		c0.113,0,0.195-0.093,0.195-0.195v-2.7h2.938v2.7c0,0.103,0.082,0.195,0.194,0.195h1.223c0.103,0,0.194-0.093,0.194-0.195V95.93
		C304.701,95.827,304.609,95.735,304.507,95.735"/>
	<path clip-path="url(#SVGID_2_)" fill="#231F20" d="M213.104,95.735h-1.093H210.8h-1.052c-1.263,0-2.3,1.196-2.3,2.438
		c0,1.274,1.037,2.565,2.29,2.565h0.866v1.99c0,0.102,0.082,0.194,0.195,0.194h1.212c0.103,0,0.194-0.093,0.194-0.194v-1.99h0.909
		c1.253,0,2.29-1.291,2.29-2.565C215.405,96.931,214.368,95.735,213.104,95.735 M210.604,99.24h-0.764
		c-0.441,0-0.812-0.604-0.812-1.066c0-0.431,0.37-0.929,0.812-0.929h0.764V99.24z M213.013,99.24h-0.807v-1.995h0.807
		c0.441,0,0.811,0.498,0.811,0.929C213.823,98.635,213.454,99.24,213.013,99.24"/>
	<path clip-path="url(#SVGID_2_)" fill="#231F20" d="M275.894,95.631c-2.055,0-3.688,1.653-3.688,3.707
		c0,2.055,1.633,3.688,3.688,3.688c2.054,0,3.696-1.633,3.696-3.688C279.59,97.285,277.947,95.631,275.894,95.631 M275.894,101.383
		c-1.119,0-2.044-0.925-2.044-2.045c0-1.129,0.925-2.063,2.044-2.063c1.13,0,2.054,0.935,2.054,2.063
		C277.947,100.458,277.023,101.383,275.894,101.383"/>
	<path clip-path="url(#SVGID_2_)" fill="#231F20" d="M243.253,95.735h-2.475c-0.112,0-0.195,0.093-0.195,0.194v6.799
		c0,0.103,0.083,0.195,0.195,0.195h1.212c0.104,0,0.195-0.093,0.195-0.195v-2.414h1.079c1.253,0,2.29-1.036,2.29-2.31
		C245.555,96.761,244.518,95.735,243.253,95.735 M243.161,98.816h-0.976v-1.571h0.976c0.442,0,0.812,0.328,0.812,0.76
		C243.973,98.466,243.604,98.816,243.161,98.816"/>
	<path clip-path="url(#SVGID_2_)" fill="#00A44F" d="M315.137,78.761c-0.322-0.83-1.138-1.388-2.027-1.388
		c-0.27,0-0.534,0.05-0.787,0.148c-1.828,0.709-5.805,1.575-6.389,1.575c-0.512,0-0.669-0.113-0.669-0.113l-0.001,0.001
		c-0.504-0.558,0.134-3.778,1.568-6.605c0.515-1.01,0.158-2.26-0.81-2.847c-0.34-0.207-0.729-0.316-1.126-0.316
		c-0.703,0-1.366,0.342-1.774,0.915c-0.813,1.143-3.163,3.754-6.007,5.894c-2.569,1.934-4.927,2.999-6.637,2.999
		c-0.289,0-0.561-0.03-0.809-0.09c-0.988-0.239-1.642-0.704-1.941-1.385c-0.261-0.591-0.663-2.341,1.23-5.812
		c0.158-0.245,1.295-1.936,3.449-3.563c2.915-2.202,6.323-3.318,10.129-3.318c0.204,0,0.413,0.003,0.617,0.009
		c1.212,0.044,2.207-0.897,2.245-2.105c0.019-0.58-0.19-1.133-0.589-1.557c-0.397-0.423-0.937-0.666-1.516-0.685
		c-0.251-0.008-0.506-0.012-0.756-0.012c-6.023,0-10.334,2.339-12.889,4.301c-0.052,0.04-0.104,0.08-0.155,0.121
		c-0.074,0.034-0.14,0.067-0.2,0.104c-3.221,1.914-6.457,2.885-9.621,2.885c-1.117,0-5.401-0.122-6.502-0.363
		c-3.137-0.686-5.079-2.161-5.094-2.172c-0.384-0.304-0.863-0.472-1.352-0.472c-0.659,0-1.275,0.293-1.69,0.804
		c-0.747,0.921-0.612,2.286,0.3,3.044c1.259,1.044,1.755,2.246,1.563,3.781c-0.158,1.271-0.758,2.277-0.759,2.28
		c-1.121,1.772-2.929,3.161-4.96,3.808c-0.786,0.25-1.56,0.377-2.297,0.377c-0.917,0-1.72-0.2-2.319-0.58
		c-2.615-1.652-0.909-7.079-0.013-9.428l18.181-19.561c4.825-4.896,7.082-9.1,6.711-12.497c-0.279-2.547-1.936-3.687-2.125-3.81
		l-0.051-0.031c-1.48-0.899-2.999-1.355-4.517-1.355c-0.714,0-1.437,0.102-2.146,0.303c-4.53,1.283-7.156,6.334-7.265,6.547
		c-0.019,0.035-0.035,0.07-0.051,0.105l-12.502,28.018c-5.665,7.583-13.29,11.062-15.041,11.563
		c-1.768,0.676-4.924,0.817-5.495,0.817c-0.511,0-0.669-0.112-0.669-0.112h-0.001c-0.503-0.558,0.136-3.778,1.569-6.605
		c0.515-1.01,0.158-2.26-0.811-2.848c-0.341-0.206-0.729-0.314-1.125-0.314c-0.703,0-1.366,0.341-1.774,0.914
		c-0.813,1.143-3.163,3.754-6.007,5.894c-2.57,1.934-4.927,2.999-6.637,2.999c-0.289,0-0.562-0.03-0.81-0.09
		c-0.988-0.239-1.641-0.704-1.94-1.385c-0.262-0.591-0.663-2.341,1.229-5.811c0.158-0.245,1.292-1.934,3.45-3.564
		c2.915-2.202,6.323-3.318,10.129-3.318c0.204,0,0.413,0.003,0.617,0.009c1.218,0.043,2.207-0.897,2.245-2.105
		c0.018-0.58-0.191-1.133-0.589-1.557c-0.397-0.423-0.937-0.666-1.517-0.685c-0.251-0.008-0.505-0.012-0.755-0.012
		c-6.024,0-10.334,2.339-12.889,4.301c-2.932,2.252-4.37,4.606-4.43,4.704c-0.016,0.026-0.03,0.053-0.044,0.077
		c-0.192,0.35-0.377,0.707-0.548,1.064c-10.434,6.924-15.576,8.378-18.053,8.378c-1.079,0-1.642-0.275-1.925-0.507
		c-1.895-1.547-0.451-7.679,0.741-10.617c0.362-0.888,0.106-1.894-0.635-2.503c-0.388-0.317-0.878-0.493-1.38-0.493
		c-0.427,0-0.841,0.125-1.198,0.361c-0.928,0.613-2.016,1.286-3.244,2.008l3.508-7.386c0.41-0.863,0.215-1.879-0.486-2.528
		c-0.403-0.374-0.928-0.58-1.478-0.58c-0.378,0-0.751,0.099-1.079,0.287l-23.083,13.195c-0.277-4.398-3.025-8.094-5.358-10.472
		l-2.531-2.805c-1.238-1.641-1.687-3.191-1.334-4.607c0.269-1.079,0.931-1.731,1.079-1.866c0.022-0.018,0.03-0.026,0.048-0.043
		l0.012-0.011c7.319-6.801,21.28-14.402,21.42-14.478c0.511-0.277,0.883-0.736,1.049-1.293c0.165-0.556,0.104-1.144-0.172-1.655
		c-0.381-0.703-1.114-1.139-1.914-1.139c-0.359,0-0.717,0.09-1.034,0.262c-0.149,0.081-3.691,2.005-8.186,4.807
		c-6.094,3.799-10.839,7.262-14.097,10.285c-0.258,0.229-1.579,1.473-2.263,3.532c-0.668,2.012-0.865,5.193,1.991,8.918
		c0.035,0.046,0.072,0.09,0.111,0.133l2.622,2.907c0.021,0.024,0.043,0.047,0.065,0.07c6.776,6.881,3.263,11.617,3.046,11.895
		c-0.013,0.014-0.017,0.021-0.027,0.033l-0.01,0.012c-1.56,1.978-3.438,3.348-5.433,3.962c-0.768,0.236-1.538,0.356-2.287,0.356
		c-0.999,0-1.954-0.21-2.84-0.626c-1.204-0.565-1.477-1.817-1.532-2.513c-0.255-3.203,2.323-6.153,4.609-7.708
		c0.016-0.011,0.03-0.022,0.046-0.035c0.033-0.023,0.065-0.047,0.095-0.071c0.026-0.022,0.052-0.044,0.077-0.066
		c0.029-0.026,0.058-0.052,0.085-0.079c0.024-0.024,0.048-0.049,0.072-0.074c0.025-0.028,0.049-0.056,0.071-0.082
		c0.023-0.027,0.044-0.055,0.067-0.084c0.021-0.029,0.042-0.057,0.062-0.087c0.02-0.03,0.039-0.059,0.057-0.09
		c0.018-0.029,0.035-0.059,0.052-0.089c0.017-0.032,0.033-0.064,0.048-0.095c0.015-0.031,0.029-0.062,0.043-0.094
		c0.014-0.033,0.027-0.066,0.039-0.099c0.012-0.032,0.023-0.064,0.033-0.097c0.011-0.034,0.021-0.067,0.03-0.101
		c0.008-0.034,0.017-0.068,0.023-0.099c0.008-0.034,0.014-0.068,0.02-0.104c0.006-0.035,0.011-0.07,0.014-0.104
		c0.004-0.034,0.007-0.067,0.009-0.101c0.003-0.036,0.005-0.072,0.005-0.108c0.001-0.034,0.001-0.068,0-0.1
		c-0.001-0.037-0.003-0.074-0.006-0.11c-0.003-0.033-0.006-0.066-0.011-0.101c-0.004-0.036-0.009-0.072-0.016-0.108
		c-0.006-0.034-0.013-0.067-0.021-0.102c-0.008-0.035-0.016-0.07-0.026-0.104c-0.01-0.035-0.021-0.07-0.032-0.102
		c-0.011-0.034-0.023-0.068-0.036-0.102c-0.014-0.034-0.028-0.068-0.044-0.102c-0.014-0.033-0.03-0.065-0.046-0.097
		c-0.017-0.032-0.035-0.065-0.055-0.1c-0.009-0.018-0.019-0.036-0.028-0.051c-0.01-0.016-0.021-0.032-0.027-0.039
		c-0.008-0.014-0.017-0.028-0.026-0.042c-0.011-0.017-0.023-0.032-0.036-0.048c-0.023-0.032-0.047-0.064-0.074-0.097
		c-0.02-0.026-0.041-0.051-0.064-0.076c-0.026-0.029-0.052-0.058-0.08-0.086c-0.024-0.024-0.048-0.047-0.072-0.069
		c-0.028-0.026-0.056-0.051-0.084-0.074c-0.027-0.023-0.055-0.044-0.081-0.064c-0.03-0.023-0.06-0.044-0.091-0.065
		c-0.028-0.019-0.056-0.037-0.086-0.055c-0.031-0.019-0.062-0.037-0.092-0.053c-0.03-0.017-0.061-0.032-0.094-0.048
		c-0.031-0.015-0.063-0.03-0.095-0.044c-0.032-0.013-0.064-0.026-0.095-0.037c-0.034-0.012-0.067-0.024-0.101-0.035
		c-0.033-0.01-0.066-0.019-0.098-0.028c-0.035-0.009-0.07-0.018-0.104-0.025c-0.032-0.007-0.065-0.013-0.098-0.018
		c-0.037-0.006-0.074-0.012-0.108-0.015c-0.032-0.004-0.064-0.007-0.099-0.009c-0.037-0.003-0.074-0.005-0.112-0.005h-0.028
		c-0.022,0-0.044,0-0.067,0c-0.038,0.001-0.075,0.003-0.113,0.006c-0.033,0.003-0.066,0.006-0.098,0.01
		c-0.037,0.005-0.074,0.011-0.109,0.017s-0.069,0.013-0.102,0.021c-0.035,0.008-0.07,0.016-0.105,0.026
		c-0.034,0.01-0.069,0.021-0.102,0.032c-0.034,0.011-0.068,0.023-0.1,0.036c-0.035,0.013-0.069,0.028-0.105,0.044
		c-0.032,0.015-0.063,0.029-0.094,0.045c-0.034,0.018-0.068,0.036-0.103,0.057c-0.017,0.009-0.034,0.018-0.052,0.029L121.628,80.44
		l5.777-12.39c0.246-0.527,0.272-1.118,0.073-1.663c-0.198-0.546-0.598-0.982-1.124-1.228c-0.291-0.135-0.6-0.204-0.918-0.204
		c-0.842,0-1.617,0.493-1.972,1.256c-1.3,2.789-4.259,6.316-7.538,8.987c-2.946,2.398-5.732,3.776-7.643,3.776
		c-0.26,0-0.502-0.027-0.72-0.079c-1.082-0.263-1.776-0.729-2.06-1.386c-0.496-1.144,0.001-3.175,1.363-5.571
		c0.021-0.037,2.192-3.786,8.489-11.616l0.016-0.022c0.027-0.035,0.053-0.071,0.078-0.108l0.009-0.012
		c0.011-0.015,0.021-0.031,0.032-0.047c0.025-0.04,0.048-0.08,0.069-0.118l0.007-0.013c0.011-0.019,0.022-0.038,0.033-0.06
		c0.015-0.029,0.028-0.059,0.041-0.089l0.014-0.031c0.012-0.026,0.024-0.052,0.033-0.078c0.009-0.022,0.017-0.044,0.024-0.067
		l0.011-0.033c0.011-0.034,0.023-0.067,0.033-0.103c0.005-0.019,0.009-0.038,0.015-0.067l0.004-0.013
		c0.01-0.041,0.019-0.082,0.027-0.124c0.003-0.019,0.005-0.039,0.009-0.068l0.002-0.015c0.006-0.04,0.011-0.081,0.014-0.121
		c0.003-0.025,0.003-0.05,0.004-0.075l0.001-0.04c0.001-0.031,0.002-0.062,0.002-0.09c-0.001-0.036-0.003-0.071-0.006-0.106
		l-0.002-0.036c-0.001-0.022-0.003-0.043-0.005-0.067c-0.005-0.046-0.013-0.092-0.021-0.138l-0.003-0.013
		c-0.002-0.018-0.005-0.035-0.009-0.052c-0.009-0.046-0.021-0.091-0.037-0.149c-0.005-0.018-0.01-0.036-0.015-0.055
		c-0.011-0.035-0.024-0.07-0.038-0.105l-0.012-0.032c-0.007-0.021-0.015-0.042-0.024-0.063c-0.011-0.027-0.024-0.053-0.037-0.079
		l-0.015-0.032c-0.014-0.029-0.028-0.057-0.042-0.084c-0.011-0.02-0.023-0.039-0.035-0.058l-0.012-0.021
		c-0.022-0.036-0.044-0.072-0.067-0.106c-0.012-0.018-0.025-0.035-0.045-0.06c-0.027-0.037-0.054-0.073-0.081-0.106l-0.017-0.021
		c-0.015-0.017-0.03-0.033-0.046-0.049l-0.014-0.015c-0.026-0.028-0.051-0.056-0.079-0.082c-0.027-0.027-0.056-0.052-0.084-0.076
		l-0.016-0.014c-0.017-0.016-0.034-0.031-0.046-0.04L115,57.25c-0.036-0.028-0.074-0.055-0.12-0.087
		c-0.015-0.011-0.03-0.021-0.048-0.033c-0.038-0.024-0.078-0.047-0.122-0.071l-0.012-0.007c-0.018-0.01-0.036-0.02-0.055-0.03
		c-0.031-0.016-0.062-0.029-0.092-0.043l-0.035-0.015c-0.023-0.01-0.046-0.021-0.071-0.031c-0.024-0.009-0.049-0.017-0.073-0.025
		l-0.033-0.011c-0.032-0.011-0.063-0.021-0.097-0.031c-0.02-0.005-0.04-0.01-0.06-0.014l-0.027-0.006
		c-0.039-0.01-0.077-0.019-0.12-0.026c-0.02-0.004-0.04-0.006-0.06-0.009l-0.023-0.003c-0.04-0.005-0.08-0.011-0.122-0.014
		c-0.025-0.002-0.05-0.003-0.075-0.003l-0.042-0.002c-0.024-0.001-0.048-0.001-0.072-0.001h-0.016c-0.034,0-0.068,0.002-0.103,0.005
		l-0.038,0.003c-0.021,0.001-0.042,0.002-0.064,0.005c-0.047,0.005-0.093,0.013-0.151,0.023c-0.017,0.002-0.035,0.005-0.055,0.009
		c-0.044,0.01-0.088,0.022-0.132,0.034l0.117,0.446l-0.131-0.443c-0.019,0.005-0.039,0.01-0.057,0.016
		c-0.035,0.011-0.071,0.024-0.106,0.038l-0.029,0.011c-0.022,0.007-0.043,0.015-0.065,0.025c-0.026,0.011-0.051,0.023-0.076,0.035
		l-0.037,0.018c-0.027,0.013-0.054,0.026-0.083,0.042c-0.019,0.01-0.038,0.022-0.057,0.033l-0.023,0.015
		c-0.036,0.021-0.071,0.042-0.105,0.066c-0.017,0.011-0.033,0.023-0.05,0.036l-0.011,0.009c-0.036,0.026-0.072,0.053-0.104,0.08
		l-0.022,0.018c-7.662,6.579-16.088,10.522-25.044,11.719c-0.206,0.027-0.414,0.054-0.622,0.078
		c1.738-3.476,2.504-7.016,2.282-10.536c-0.405-6.394-4.075-12.282-10.908-17.5c-0.434-0.356-4.157-3.334-10.102-5.814
		c-5.393-2.25-10.932-3.39-16.466-3.39c-2.907,0-5.785,0.315-8.554,0.938c-3.4,0.764-9.315,4.134-10.714,9.925
		c-1.493,6.175,2.972,11.462,6.974,14.804c0.69,0.6,6.951,5.916,16.727,10.357l-5.943,12.494c-0.515,1.083-0.053,2.384,1.03,2.898
		c0.295,0.14,0.608,0.211,0.933,0.211c0.835,0,1.606-0.487,1.965-1.241l2.022-4.251c2.236,2.303,5.732,4.905,10.341,5.305
		c0.396,0.033,0.799,0.052,1.196,0.052c5.02,0,10.045-2.731,14.938-8.116c0.159-0.161,0.672-0.693,1.337-1.527
		c1.364-0.065,2.733-0.188,4.072-0.365c5.684-0.752,11.21-2.522,16.451-5.269c-0.706,1.07-1.025,1.623-1.071,1.704
		c-2.134,3.756-2.664,6.936-1.575,9.451c0.845,1.95,2.585,3.293,5.032,3.884c0.544,0.132,1.123,0.199,1.72,0.199
		c3.198-0.001,6.568-1.92,8.898-3.594l-2.275,4.879l-10.325,6.38c-4.298,2.506-7.463,5.058-9.408,7.585
		c-1.751,2.273-2.558,4.553-2.399,6.772c0.229,3.191,2.407,5.227,3.726,5.761c2.502,1.013,4.992,1.017,7.308,0.014
		c4.783-2.069,7.238-7.848,7.526-8.56l6.965-14.937l22.585-13.954c-0.162,0.879-0.209,1.753-0.141,2.609
		c0.221,2.786,1.687,5.011,4.021,6.105c1.459,0.686,3.04,1.032,4.699,1.032c1.191,0,2.387-0.183,3.556-0.543
		c2.835-0.873,5.447-2.743,7.549-5.401c0.123-0.149,0.544-0.69,0.973-1.556l20.337-11.626l-21.157,44.544
		c-0.514,1.083-0.051,2.383,1.032,2.897c0.294,0.14,0.607,0.211,0.931,0.211c0.836,0,1.607-0.488,1.966-1.242l17.411-36.657
		c0.86-0.453,2.344-1.247,4.028-2.207c-0.014,0.074-0.026,0.147-0.041,0.221c-0.837,4.654-0.103,7.964,2.185,9.834
		c1.2,0.983,2.766,1.482,4.651,1.482c1.336,0,2.858-0.253,4.523-0.75c3.245-0.971,7.31-2.945,12.093-5.872
		c0.047,0.924,0.243,1.781,0.586,2.557c0.863,1.957,2.558,3.29,4.899,3.856c0.591,0.142,1.213,0.215,1.848,0.215
		c2.709,0,5.815-1.304,9.234-3.876c0.349-0.263,0.7-0.539,1.053-0.826c0.09,1.32,0.509,2.402,1.253,3.226
		c0.931,1.029,2.249,1.552,3.917,1.552c1.575,0,3.784-0.367,5.572-0.768c0.136-0.034,1.605-0.409,3.117-1.048
		c0.117-0.052,0.242-0.107,0.372-0.166c0.073-0.032,0.146-0.064,0.219-0.099c2.397-1.097,6.488-3.195,9.291-5.921
		c0.088,3.007,1.251,5.293,3.397,6.65c1.299,0.821,2.904,1.256,4.643,1.256c1.182,0,2.399-0.197,3.617-0.585
		c3.034-0.967,5.633-2.967,7.318-5.631c0.108-0.173,1.069-1.749,1.375-3.899c0.08-0.565,0.11-1.126,0.087-1.674
		c0.256,0.069,0.514,0.134,0.77,0.193c2.863,0.657,9.082,0.658,12.092-0.006c-1.46,3.612-1.04,6.082-0.392,7.55
		c0.863,1.957,2.559,3.29,4.899,3.856c0.591,0.142,1.213,0.215,1.848,0.215c2.709,0,5.815-1.304,9.234-3.876
		c0.348-0.262,0.7-0.538,1.053-0.826c0.089,1.32,0.51,2.402,1.253,3.226c0.932,1.029,2.249,1.552,3.917,1.552
		c2.062,0,7.05-1.53,7.943-1.877C315.015,81.142,315.57,79.879,315.137,78.761 M269.232,40.533c0.532-1.002,2.366-3.687,4.565-4.304
		c1.004-0.282,1.996-0.117,3.08,0.509c0.067,0.081,0.225,0.317,0.251,0.796c0.051,0.934-0.384,3.669-5.52,8.874l-9.613,10.342
		L269.232,40.533z M66.561,78.977c-4.264-0.359-7.401-3.625-8.707-5.243l1.976-4.156c1.135,0.436,2.282,0.844,3.414,1.214
		c4.898,1.598,9.786,2.563,14.547,2.873C73.928,77.487,70.144,79.275,66.561,78.977 M81.363,69.426
		c-5.406,0.024-11.01-0.901-16.666-2.735c-0.987-0.32-1.992-0.675-2.993-1.055l5.594-11.762c0.515-1.083,0.053-2.383-1.03-2.898
		c-0.294-0.14-0.608-0.211-0.933-0.211c-0.835,0-1.606,0.487-1.965,1.241l-5.684,11.952c-9.49-4.318-15.693-9.659-15.755-9.713
		l-0.036-0.03c-4.4-3.672-6.32-7.289-5.554-10.461c0.878-3.63,4.958-6.146,7.44-6.704c2.525-0.567,5.104-0.855,7.666-0.855
		c4.84,0,9.758,1.021,14.619,3.034c5.6,2.318,9.105,5.189,9.138,5.217c0.025,0.02,0.05,0.04,0.076,0.06
		c5.796,4.418,8.903,9.234,9.235,14.314C84.8,63.167,82.992,66.955,81.363,69.426 M107.346,100.778
		c-0.019,0.041-0.038,0.086-0.055,0.128c-0.018,0.047-1.926,4.798-5.238,6.224c-1.24,0.534-2.477,0.522-3.885-0.035
		c-0.121-0.088-1.045-0.805-1.081-2.206c-0.044-1.666,1.087-3.566,3.361-5.652c2.027-1.858,4.557-3.476,6.323-4.504l4.767-2.945
		L107.346,100.778z"/>
</g>
</svg>
