<?xml version="1.0" encoding="utf-8"?>
<!-- Generator: Adobe Illustrator 15.0.0, SVG Export Plug-In . SVG Version: 6.00 Build 0)  -->
<!DOCTYPE svg PUBLIC "-//W3C//DTD SVG 1.1//EN" "http://www.w3.org/Graphics/SVG/1.1/DTD/svg11.dtd">
<svg version="1.1" id="Слой_1" xmlns="http://www.w3.org/2000/svg" xmlns:xlink="http://www.w3.org/1999/xlink" x="0px" y="0px"
	 width="316px" height="123px" viewBox="0 0 316 123" enable-background="new 0 0 316 123" xml:space="preserve">
<g>
	<defs>
		<rect id="SVGID_1_" x="-510" y="-302.992" width="1354.371" height="739.992"/>
	</defs>
	<clipPath id="SVGID_2_">
		<use xlink:href="#SVGID_1_"  overflow="visible"/>
	</clipPath>
	<path clip-path="url(#SVGID_2_)" fill="#BC2E18" d="M140.966,42.314c2.375,1.027,4.946,1.086,7.431,1.145
		c0.938,0.022,1.907,0.045,2.833,0.121c1.119,0.091,2.268,0.271,3.377,0.444c1.667,0.259,3.391,0.528,5.127,0.528
		c0.154,0,0.309-0.003,0.464-0.007c0.204-0.006,0.407-0.016,0.611-0.03c1.664-0.114,3.9-0.633,5.11-2.453
		c0.878-1.321,0.926-2.921,0.965-4.206c0.066-2.217,0.149-4.975-1.235-7.239c-0.804-1.316-2.105-2.445-3.977-3.451
		c-5.487-2.951-11.938-3.226-17.629-3.469l-0.175,1.728c-0.18-0.028-0.419-0.187-0.522-0.465c-0.109-0.294-0.489-0.243-0.775-0.154
		c-0.141-0.224-0.332-0.491-0.637-0.687c-0.3-0.195-0.651-0.29-1.073-0.29c-0.132,0-0.271,0.008-0.438,0.028
		c-2.317,0.272-4.381,1.488-5.661,3.338c-1.137,1.642-1.503,3.596-1.032,5.502C134.874,37.314,137.51,40.818,140.966,42.314"/>
	<path clip-path="url(#SVGID_2_)" fill="#BC2E18" d="M310.43,27.606c-0.459-1.083-1.188-2.028-1.773-2.787
		c-0.274-0.355-0.548-0.712-0.821-1.069c-1.521-1.985-3.096-4.038-4.838-5.918c-0.173-0.187-0.368-0.406-0.581-0.646
		c-1.519-1.705-3.812-4.281-6.042-4.281c-0.345,0.001-0.67,0.039-0.983,0.077c-0.28,0.033-0.547,0.065-0.794,0.065
		c-0.068,0-0.137-0.003-0.205-0.009c-0.195-0.016-0.41-0.063-0.639-0.112c-0.34-0.073-0.725-0.157-1.137-0.157
		c-0.105,0-0.21,0.005-0.315,0.016c-0.334,0.037-0.818,0.192-1.228,0.719c-0.502,0.646-1.548,2.993-0.434,10.813
		c0.918,6.429,3.915,8.078,6.27,8.329c0.708,0.076,1.438,0.318,2.143,0.554c1.622,0.54,3.301,1.1,4.813,1.888
		c0.592,0.309,1.121,0.53,1.617,0.679c0.525,0.156,1.014,0.232,1.497,0.232c1.038,0,2.015-0.369,2.902-1.095
		C311.926,33.233,311.135,29.266,310.43,27.606"/>
	<path clip-path="url(#SVGID_2_)" fill="#BC2E18" d="M290.055,42.918c-1.713,0-3.279,0.55-4.529,1.591
		c-1.538,1.283-2.384,3.032-3.253,5.019c-1.597,3.645-3.137,7.374-4.576,11.086c-0.703,1.813-1.371,3.596-1.811,5.469
		c-0.637,2.725-0.757,5.522-0.872,8.229l-0.662,15.532c-0.036,0.867-0.098,1.624-0.467,2.127c-0.391,0.531-1.135,0.805-1.994,1.084
		c-4.129,1.34-8.176,2.542-12.309,2.542c-0.088,0-0.176,0-0.264-0.001c-4.601-0.059-8.704-1.845-10.979-4.779
		c-2.339-3.016-3.099-7.298-2.393-13.475c0.359-3.134,1.088-7.062,3.56-9.637c1.416-1.475,3.271-2.417,5.233-3.414
		c0.367-0.187,0.734-0.373,1.098-0.563c8.521-4.452,15.622-11.173,20.534-19.438c0.735-1.237,1.463-2.587,1.807-4.077
		c0.374-1.617,0.271-3.231,0.172-4.793c-0.313-4.906-0.665-10.468-3.302-15.168c-3.485-6.211-10.755-10.07-18.974-10.07
		c-1.567,0-3.124,0.148-4.627,0.441c-1.526,0.297-3.483,0.802-5.084,2.073c-1.181,0.936-2.013,2.162-2.829,3.442
		c-8.964,14.022-15.037,30.128-17.563,46.577c-0.109,0.714-0.316,1.684-0.843,1.854c-0.067,0.021-0.145,0.032-0.238,0.032
		c-0.238,0-0.54-0.073-0.782-0.131l-9.522-2.3c-1.113-0.27-2.265-0.547-3.148-1.182c-1.217-0.874-1.865-2.345-2.551-3.901
		c-0.24-0.545-0.489-1.108-0.766-1.649c-2.473-4.839-8.025-8.091-13.816-8.091c-2.165,0-4.205,0.446-6.063,1.325l-0.512,0.242
		l0.014,0.565c0.052,2.135,0.505,4.286,1.318,6.266c-0.305,0.127-0.672,0.187-1.135,0.187c-0.556,0-1.155-0.085-1.79-0.175
		c-0.473-0.068-0.964-0.138-1.443-0.17c-0.185-0.013-0.368-0.019-0.552-0.019c-2.986,0-6.045,1.65-8.183,4.412
		c-4.181,5.401-4.613,12.842-4.994,19.407l-0.021,0.36c-0.493,8.468,0.551,14.973,3.284,20.472c1.261,2.536,2.706,4.409,4.418,5.729
		c3.42,2.632,7.853,3.084,12.134,3.181c0.487,0.012,0.978,0.019,1.468,0.019c2.602,0,5.972-0.183,8.978-1.604
		c3.188-1.506,5.895-4.301,8.276-8.54c4.113-7.322,5.787-15.941,4.714-24.271c-0.085-0.652-0.149-1.372,0.151-1.653
		c0.071-0.065,0.198-0.151,0.495-0.151c0.438,0,0.974,0.188,1.338,0.329l5.179,2.012c0.743,0.289,1.511,0.587,2.001,1.114
		c0.723,0.777,0.847,2.038,0.967,3.258c0.493,4.997,1.59,12.353,5.398,18.503c4.663,7.532,13.054,12.508,21.899,12.984
		c0.462,0.024,0.933,0.037,1.398,0.037c7.896,0,15.798-3.642,20.938-9.578c4.026,6.872,11.87,11.408,19.931,11.408
		c0.545,0,1.095-0.022,1.634-0.063c1.063-0.082,2.382-0.313,3.153-1.38c0.646-0.895,0.608-1.985,0.58-2.783
		c-0.53-14.912-0.078-30.005,1.342-44.86l0.011-0.112c0.489-5.123,0.997-10.42-1.373-15.049
		C297.529,45.369,293.659,42.918,290.055,42.918 M254.563,40.721c0.641-1.919,1.591-3.791,2.6-5.773
		c0.663-1.309,1.352-2.661,1.936-4.021c1.167-2.719,1.507-4.788,1.251-7.636c-0.045-0.493-0.18-1.997,0.347-2.572
		c0.069-0.077,0.283-0.311,0.93-0.311c0.089,0,0.181,0.004,0.279,0.01c0.277,0.018,0.465,0.131,0.624,0.379
		c1.325,2.049-0.606,9.561-1.599,12.204c-0.755,2.016-2.113,3.818-3.556,5.642c-0.211,0.266-0.427,0.617-0.655,0.99
		c-0.372,0.609-1.067,1.742-1.507,1.832c-0.039,0.008-0.079,0.013-0.117,0.013c-0.176,0-0.346-0.091-0.455-0.242
		C254.577,41.146,254.483,40.963,254.563,40.721 M202.075,92.848c-1.31,2.905-4.209,7.891-8.906,8.64
		c-0.296,0.047-0.596,0.07-0.893,0.07l0,0c-1.302,0-2.363-0.444-2.912-1.221c-0.375-0.53-0.544-1.234-0.696-1.971
		c-0.544-2.604-0.882-5.26-1.008-7.893c-0.398-8.373,1.336-16.09,5.016-22.317c0.438-0.743,0.969-1.573,1.704-2.035
		c0.505-0.317,1.095-0.472,1.802-0.472c1.212,0,2.543,0.449,3.801,0.934c1.943,0.748,3.624,1.48,4.524,2.877
		c0.604,0.937,0.813,2.102,0.94,3.562C206.035,79.794,204.869,86.649,202.075,92.848"/>
	<path clip-path="url(#SVGID_2_)" fill="#BC2E18" d="M165.125,70.197c-0.848-1.433-1.651-2.786-1.271-4.06
		c0.019-0.068,0.042-0.137,0.065-0.207c0.149-0.446,0.352-1.057,0.056-1.702c-0.201-0.441-0.569-0.704-0.788-0.862
		c-5.922-4.248-12.868-7.031-20.085-8.045c-0.519-0.073-1.203-0.157-1.893-0.157c-1.099,0-2.008,0.211-2.779,0.646
		c-2.52,1.42-3.061,4.718-3.456,7.125l-0.086,0.523c-0.604,3.566-1.022,7.196-1.243,10.79c-0.438,7.168-0.104,14.332,0.991,21.291
		c0.166,1.058,0.359,2.127,0.614,3.18c-1.225,0.124-2.558,0.397-3.982,0.824c-0.373,0.111-0.747,0.227-1.124,0.343
		c-2.132,0.657-4.338,1.337-6.418,1.337c-0.922,0-1.75-0.13-2.531-0.396c-3.168-1.084-5.404-4.369-6.839-10.045
		c-3.693-14.614-3.06-30.949,1.885-48.552c0.27-0.958,0.55-1.919,0.831-2.882c1.718-5.883,3.494-11.965,2.844-18.165
		c-0.504-4.802-2.607-8.63-5.771-10.503c-2.445-1.447-5.324-1.678-7.863-1.881l-11.098-0.89c-0.266-0.021-0.576-0.044-0.889-0.044
		c-0.528,0-1.313,0.055-2.017,0.524c-1.058,0.705-1.38,1.968-1.592,2.803l-9.333,36.693c-11.129-9.834-25.897-15.452-40.77-15.459
		c-4.432,0-10.157,0.96-12.258,5.535c-0.116,0.254-0.22,0.514-0.32,0.765c-0.289,0.729-0.563,1.416-1.064,1.707
		c-0.215,0.125-0.469,0.182-0.799,0.182c-0.414,0-0.876-0.09-1.365-0.185c-0.29-0.057-0.59-0.116-0.891-0.156
		c-0.383-0.053-0.763-0.08-1.125-0.08c-6.167,0-7.548,7.419-8.464,12.329c-0.178,0.955-0.346,1.855-0.525,2.61
		c-1.561,6.524-3.235,15.13-2.327,23.846c1.33,12.741,8.557,23.328,18.412,26.972c2.705,0.999,5.636,1.506,8.717,1.506
		c4.092,0,8.389-0.91,12.424-2.632c9.689-4.131,16.922-12.506,18.877-21.858c0.654-3.127,0.743-6.343,0.829-9.453
		c0.086-3.085,0.174-6.273,0.824-9.292c0.138-0.634,0.318-1.263,0.712-1.554c0.342-0.254,0.899-0.294,1.54-0.317l6.36-0.232
		c0.083,9.827,0.273,20.855,3.735,31.097c3.908,11.564,11.901,20.317,21.381,23.415c2.136,0.698,4.396,1.13,6.714,1.282
		c0.639,0.043,1.291,0.064,1.937,0.064c4.192,0,8.493-0.898,12.438-2.599c4.737-2.042,9.086-5.214,12.792-9.299
		c0.065,0.068,0.13,0.14,0.195,0.208c0.723,0.77,1.406,1.497,1.898,2.338c0.154,0.264,0.293,0.545,0.441,0.843
		c0.327,0.658,0.664,1.339,1.214,1.931c0.329,0.353,0.719,0.655,1.157,0.898c0.984,0.546,2.233,0.811,3.818,0.811
		c0.281,0,0.569-0.007,0.884-0.023c4.738-0.243,8.453-1.55,11.038-3.884c2.173-1.963,3.742-4.831,4.662-8.529
		c0.521-2.103,0.799-4.263,1.068-6.353c0.125-0.972,0.254-1.977,0.405-2.955c0.174-1.127,0.387-2.274,0.593-3.383
		c0.395-2.13,0.803-4.331,0.974-6.549c0.311-4.046-0.281-7.478-1.763-10.195C165.535,70.887,165.327,70.536,165.125,70.197
		 M54.486,78.995L54.419,79.5c-0.508,3.859-1.482,8.721-4.534,12.088c-1.037,1.144-2.085,1.96-3.207,2.495
		c-0.31,0.147-0.583,0.219-0.834,0.219c-0.404,0-0.763-0.189-1.099-0.58c-1.025-1.192-1.893-2.479-2.579-3.822
		c-0.748-1.462-1.214-3.199-1.667-4.881c-0.138-0.517-0.276-1.027-0.419-1.525l-2.187-7.58c-0.566-1.96-0.883-3.804-1.029-5.98
		c-0.163-2.435,0.112-5.024,0.377-7.529c0.576-5.417,1.17-11.017-2.34-16.026c-0.667-0.951-1.014-1.832-0.541-3.03
		c0.201,0.067,0.405,0.142,0.614,0.219c0.769,0.283,1.563,0.575,2.492,0.575l0.109-0.002c1.875-0.047,3.134-1.067,4.244-1.967
		c0.805-0.653,1.567-1.271,2.496-1.483c0.257-0.059,0.517-0.089,0.773-0.089c1.41,0,2.676,0.896,3.225,2.283
		c0.167,0.42,0.451,0.817,0.761,1.063c1.647,1.305,3.012,3.51,4.332,5.643c0.732,1.183,1.423,2.301,2.166,3.282
		c0.221,0.292,0.28,0.721,0.325,1.172C56.711,62.109,55.529,71.08,54.486,78.995"/>
</g>
</svg>
